<svg xmlns="http://www.w3.org/2000/svg" viewBox="0 0 1359.55 1168.31"><defs><style>.cls-1,.cls-2{fill:#0da89a;}.cls-2{font-size:250.41px;font-family:SFProDisplay-Bold, SF Pro Display;font-weight:700;}</style></defs><g id="Layer_2" data-name="Layer 2"><g id="Layer_1-2" data-name="Layer 1"><path class="cls-1" d="M385.13,0C537.69.07,635.31,94.73,661.48,122.27,789.1,256.61,769.41,428.49,765.94,454.83c-4.78,36.26-24.33,168.29-141.2,258.49-108.52,83.75-229.14,76-268.37,73.48-43.43-2.79-146-10.87-234.82-89.46C5,594.18,1.05,448.21.15,414.6-1.24,362.91,5,233.52,105.58,125.47,131.38,97.76,230-.07,385.13,0Zm5.55,686c68.06-2.67,114.12-52.08,133-74.34C590,533.54,594,434,593.56,391.8c-.41-39.66-7.57-114.64-54.42-190-14.94-24-72-90.42-154.4-88.37C316.08,115.11,270,163,246,190.5c-59.06,67.64-67.37,145.09-70.63,179.93-3.49,37.41-6.37,131.64,48,213.62C237.91,606,299.52,689.55,390.68,686Z"/><path class="cls-1" d="M1015.21,767c-2.35,8.31-7.46,22-19.47,37.71-10.77,14-27,29.68-52,44.43-10.89,6.45-32.49,18.12-64,28.11-1.91.62-3.87,1.24-5.84,1.8-85.62,25.53-175.72,16.6-224.76,11.5-45.33-4.71-37.14-7.52-159.51-31-98.3-18.85-148.46-28.28-196-29.57-38.66-1.07-97.4.84-169.72,17.39Q95.24,822.08,66.4,796.8C186,748.05,289.2,741.43,338.29,740.59c77.54-1.29,154.52,9.7,185.37,14.08,73.9,10.55,105.6,21.38,185.44,30.3,23.22,2.58,42.64,4.43,58.8,5.72,41.79,3.37,62.39,3.09,72.82,2.64a582,582,0,0,0,90-11.17c20-4,34-8.08,40.28-9.93,12.57-3.7,22.56-7.24,29.46-9.87C1005.39,763.93,1010.33,765.5,1015.21,767Z"/><path class="cls-1" d="M1167.89,411.86c121.07-28.67,148.45-93.92,148.45-195.81C1316.34,72.7,1186.57,1,1060.33,1H790V734.41c29.23,2.42,47.92,3.09,59.42,3.09,4.65,0,8.13-.11,10.83-.22a535.48,535.48,0,0,0,92.57-12.46v-270h68.06q146.94,0,147,186.83,0,122.63-80.68,153-12.45,18.44-27,37.85c-12.17,16.11-24.29,31-36.15,44.74h36.3c196.43,0,299.22-77.71,299.22-233.06C1359.55,518.41,1313.82,440.92,1167.89,411.86Zm-136.73-29.57H952.83V73.54h71.87q115,0,114.91,148.29Q1139.61,382.31,1031.16,382.29Z"/><text class="cls-2" transform="translate(55.44 1102.65) scale(0.98 1)">Quick</text><text class="cls-2" transform="translate(740.32 1102.65) scale(0.98 1)">Buck</text></g></g></svg>